<mxfile host="Electron" modified="2024-02-25T16:12:51.800Z" agent="Mozilla/5.0 (Windows NT 10.0; Win64; x64) AppleWebKit/537.36 (KHTML, like Gecko) draw.io/23.1.5 Chrome/120.0.6099.109 Electron/28.1.0 Safari/537.36" etag="jhAml5P0O9SuTcmkzWUA" version="23.1.5" type="device">
  <diagram name="PÃ¡gina-1" id="Jy2laTJSRQjfN95-dnM8">
    <mxGraphModel dx="1687" dy="1040" grid="1" gridSize="10" guides="1" tooltips="1" connect="1" arrows="1" fold="1" page="1" pageScale="1" pageWidth="827" pageHeight="1169" math="0" shadow="0">
      <root>
        <mxCell id="0" />
        <mxCell id="1" parent="0" />
        <mxCell id="A1l-bd0E0Y_Q0n0ILJGn-7" value="&lt;br&gt;&lt;br&gt;&lt;br&gt;&lt;br&gt;&lt;br&gt;&lt;br&gt;&lt;br&gt;&lt;br&gt;&lt;br&gt;&lt;br&gt;&lt;br&gt;&lt;br&gt;&lt;br&gt;&amp;nbsp; &amp;nbsp; &amp;nbsp; &amp;nbsp; &amp;nbsp; &amp;nbsp; &amp;nbsp; &amp;nbsp; &amp;nbsp; &amp;nbsp; &amp;nbsp; &amp;nbsp; &amp;nbsp; &amp;nbsp; &amp;nbsp; &amp;nbsp; &amp;nbsp;Inverter Control" style="rounded=0;whiteSpace=wrap;html=1;" parent="1" vertex="1">
          <mxGeometry x="80.25" y="430" width="409.75" height="240" as="geometry" />
        </mxCell>
        <mxCell id="BjwouLiTSygqV8sqMYOX-5" style="edgeStyle=orthogonalEdgeStyle;rounded=0;orthogonalLoop=1;jettySize=auto;html=1;exitX=-0.007;exitY=0.574;exitDx=0;exitDy=0;entryX=0.048;entryY=0;entryDx=0;entryDy=0;entryPerimeter=0;exitPerimeter=0;" parent="1" edge="1">
          <mxGeometry relative="1" as="geometry">
            <mxPoint x="109.99599999999992" y="750" as="targetPoint" />
            <Array as="points">
              <mxPoint x="298.81" y="580" />
              <mxPoint x="109.81" y="580" />
            </Array>
            <mxPoint x="299.2200000000001" y="578.8799999999999" as="sourcePoint" />
          </mxGeometry>
        </mxCell>
        <mxCell id="BjwouLiTSygqV8sqMYOX-6" value="PWM_L" style="edgeLabel;html=1;align=center;verticalAlign=middle;resizable=0;points=[];rotation=270;" parent="BjwouLiTSygqV8sqMYOX-5" vertex="1" connectable="0">
          <mxGeometry x="-0.4151" relative="1" as="geometry">
            <mxPoint x="-83" y="90" as="offset" />
          </mxGeometry>
        </mxCell>
        <mxCell id="r6BQJi9y0me9pl01Vemt-1" value="STM32F7" style="whiteSpace=wrap;html=1;aspect=fixed;" parent="1" vertex="1">
          <mxGeometry x="280.25" y="510" width="120" height="120" as="geometry" />
        </mxCell>
        <mxCell id="A1l-bd0E0Y_Q0n0ILJGn-2" value="" style="shape=flexArrow;endArrow=classic;startArrow=classic;html=1;rounded=0;fillColor=#0050ef;strokeColor=#001DBC;" parent="1" edge="1">
          <mxGeometry width="100" height="100" relative="1" as="geometry">
            <mxPoint x="350.25" y="510" as="sourcePoint" />
            <mxPoint x="350.25" y="350" as="targetPoint" />
          </mxGeometry>
        </mxCell>
        <mxCell id="A1l-bd0E0Y_Q0n0ILJGn-3" value="CAN1" style="edgeLabel;html=1;align=center;verticalAlign=middle;resizable=0;points=[];" parent="A1l-bd0E0Y_Q0n0ILJGn-2" vertex="1" connectable="0">
          <mxGeometry x="-0.4493" y="-1" relative="1" as="geometry">
            <mxPoint x="9" y="-66" as="offset" />
          </mxGeometry>
        </mxCell>
        <mxCell id="rTdynAf4Dbq_gKmKwfeH-3" style="edgeStyle=orthogonalEdgeStyle;rounded=0;orthogonalLoop=1;jettySize=auto;html=1;" parent="1" source="A1l-bd0E0Y_Q0n0ILJGn-8" edge="1">
          <mxGeometry relative="1" as="geometry">
            <Array as="points">
              <mxPoint x="200" y="620" />
            </Array>
            <mxPoint x="280" y="620" as="targetPoint" />
          </mxGeometry>
        </mxCell>
        <mxCell id="rTdynAf4Dbq_gKmKwfeH-4" value="Trip_L" style="edgeLabel;html=1;align=center;verticalAlign=middle;resizable=0;points=[];rotation=270;" parent="rTdynAf4Dbq_gKmKwfeH-3" vertex="1" connectable="0">
          <mxGeometry x="0.5176" y="-1" relative="1" as="geometry">
            <mxPoint x="-30" y="89" as="offset" />
          </mxGeometry>
        </mxCell>
        <mxCell id="Sd1_wsucwqB7kgYc21f2-3" style="edgeStyle=orthogonalEdgeStyle;rounded=0;orthogonalLoop=1;jettySize=auto;html=1;endArrow=none;endFill=0;" edge="1" parent="1" source="A1l-bd0E0Y_Q0n0ILJGn-8">
          <mxGeometry relative="1" as="geometry">
            <mxPoint x="320" y="460" as="targetPoint" />
            <Array as="points">
              <mxPoint x="240" y="460" />
            </Array>
          </mxGeometry>
        </mxCell>
        <mxCell id="A1l-bd0E0Y_Q0n0ILJGn-8" value="Inverter Power L" style="rounded=0;whiteSpace=wrap;html=1;" parent="1" vertex="1">
          <mxGeometry x="80.25" y="750" width="207" height="200" as="geometry" />
        </mxCell>
        <mxCell id="BjwouLiTSygqV8sqMYOX-10" value="" style="shape=flexArrow;endArrow=classic;html=1;rounded=0;fillColor=#e51400;strokeColor=#B20000;" parent="1" edge="1">
          <mxGeometry width="50" height="50" relative="1" as="geometry">
            <mxPoint x="390.25" y="350" as="sourcePoint" />
            <mxPoint x="390.25" y="510" as="targetPoint" />
          </mxGeometry>
        </mxCell>
        <mxCell id="BjwouLiTSygqV8sqMYOX-11" value="LV+in" style="edgeLabel;html=1;align=center;verticalAlign=middle;resizable=0;points=[];" parent="BjwouLiTSygqV8sqMYOX-10" vertex="1" connectable="0">
          <mxGeometry x="-0.5417" y="-2" relative="1" as="geometry">
            <mxPoint x="12" y="13" as="offset" />
          </mxGeometry>
        </mxCell>
        <mxCell id="BjwouLiTSygqV8sqMYOX-28" value="" style="whiteSpace=wrap;html=1;" parent="1" vertex="1">
          <mxGeometry x="652.5" y="453.5" width="165" height="126.5" as="geometry" />
        </mxCell>
        <mxCell id="BjwouLiTSygqV8sqMYOX-29" value="" style="endArrow=none;html=1;rounded=0;fillColor=#e3c800;strokeColor=#B09500;strokeWidth=2;" parent="1" edge="1">
          <mxGeometry width="50" height="50" relative="1" as="geometry">
            <mxPoint x="667.5" y="475" as="sourcePoint" />
            <mxPoint x="717.5" y="475" as="targetPoint" />
          </mxGeometry>
        </mxCell>
        <mxCell id="BjwouLiTSygqV8sqMYOX-30" value="" style="endArrow=none;html=1;rounded=0;fillColor=#0050ef;strokeColor=#001DBC;strokeWidth=2;" parent="1" edge="1">
          <mxGeometry width="50" height="50" relative="1" as="geometry">
            <mxPoint x="667.5" y="495" as="sourcePoint" />
            <mxPoint x="717.5" y="495" as="targetPoint" />
          </mxGeometry>
        </mxCell>
        <mxCell id="BjwouLiTSygqV8sqMYOX-31" value="" style="endArrow=none;html=1;rounded=0;strokeColor=#F0E6E6;strokeWidth=2;fillColor=#f5f5f5;" parent="1" edge="1">
          <mxGeometry width="50" height="50" relative="1" as="geometry">
            <mxPoint x="667.5" y="514.6700000000001" as="sourcePoint" />
            <mxPoint x="717.5" y="514.6700000000001" as="targetPoint" />
          </mxGeometry>
        </mxCell>
        <mxCell id="BjwouLiTSygqV8sqMYOX-33" value="" style="endArrow=none;html=1;rounded=0;fillColor=#e51400;strokeColor=#B20000;strokeWidth=2;" parent="1" edge="1">
          <mxGeometry width="50" height="50" relative="1" as="geometry">
            <mxPoint x="667.5" y="543" as="sourcePoint" />
            <mxPoint x="717.5" y="543" as="targetPoint" />
          </mxGeometry>
        </mxCell>
        <mxCell id="BjwouLiTSygqV8sqMYOX-34" value="Analog signal" style="text;html=1;strokeColor=none;fillColor=none;align=center;verticalAlign=middle;whiteSpace=wrap;rounded=0;" parent="1" vertex="1">
          <mxGeometry x="717.5" y="465" width="90" height="20" as="geometry" />
        </mxCell>
        <mxCell id="BjwouLiTSygqV8sqMYOX-35" value="CAN" style="text;html=1;strokeColor=none;fillColor=none;align=center;verticalAlign=middle;whiteSpace=wrap;rounded=0;" parent="1" vertex="1">
          <mxGeometry x="717.5" y="485" width="90" height="20" as="geometry" />
        </mxCell>
        <mxCell id="BjwouLiTSygqV8sqMYOX-36" value="MCU GPIO" style="text;html=1;strokeColor=none;fillColor=none;align=center;verticalAlign=middle;whiteSpace=wrap;rounded=0;" parent="1" vertex="1">
          <mxGeometry x="717.5" y="505" width="90" height="20" as="geometry" />
        </mxCell>
        <mxCell id="BjwouLiTSygqV8sqMYOX-38" value="Supply" style="text;html=1;strokeColor=none;fillColor=none;align=center;verticalAlign=middle;whiteSpace=wrap;rounded=0;" parent="1" vertex="1">
          <mxGeometry x="717.5" y="533" width="90" height="20" as="geometry" />
        </mxCell>
        <mxCell id="BjwouLiTSygqV8sqMYOX-39" value="Legend" style="swimlane;whiteSpace=wrap;html=1;" parent="1" vertex="1">
          <mxGeometry x="652.5" y="435" width="165" height="145" as="geometry" />
        </mxCell>
        <mxCell id="rTdynAf4Dbq_gKmKwfeH-14" value="" style="endArrow=none;html=1;rounded=0;fillColor=#fa6800;strokeColor=#C73500;strokeWidth=5;" parent="BjwouLiTSygqV8sqMYOX-39" edge="1">
          <mxGeometry width="50" height="50" relative="1" as="geometry">
            <mxPoint x="15" y="129.66" as="sourcePoint" />
            <mxPoint x="65" y="129.66" as="targetPoint" />
            <Array as="points">
              <mxPoint x="45" y="129.66" />
            </Array>
          </mxGeometry>
        </mxCell>
        <mxCell id="rTdynAf4Dbq_gKmKwfeH-15" value="Power" style="text;html=1;strokeColor=none;fillColor=none;align=center;verticalAlign=middle;whiteSpace=wrap;rounded=0;" parent="BjwouLiTSygqV8sqMYOX-39" vertex="1">
          <mxGeometry x="62.5" y="120" width="90" height="20" as="geometry" />
        </mxCell>
        <mxCell id="l8ryaONsEic8xpae3Xou-19" style="edgeStyle=orthogonalEdgeStyle;rounded=0;orthogonalLoop=1;jettySize=auto;html=1;exitX=0;exitY=0.5;exitDx=0;exitDy=0;strokeWidth=5;endArrow=none;endFill=0;fillColor=#fa6800;strokeColor=#C73500;" parent="1" source="rTdynAf4Dbq_gKmKwfeH-13" target="l8ryaONsEic8xpae3Xou-10" edge="1">
          <mxGeometry relative="1" as="geometry" />
        </mxCell>
        <mxCell id="rTdynAf4Dbq_gKmKwfeH-13" value="DC-link Bus" style="rounded=0;whiteSpace=wrap;html=1;direction=west;" parent="1" vertex="1">
          <mxGeometry x="80.25" y="900" width="77.25" height="30" as="geometry" />
        </mxCell>
        <mxCell id="l8ryaONsEic8xpae3Xou-4" style="edgeStyle=orthogonalEdgeStyle;rounded=0;orthogonalLoop=1;jettySize=auto;html=1;entryX=0.048;entryY=0;entryDx=0;entryDy=0;entryPerimeter=0;endArrow=none;endFill=0;startArrow=classic;startFill=1;fillColor=#e3c800;strokeColor=#B09500;" parent="1" edge="1">
          <mxGeometry relative="1" as="geometry">
            <mxPoint x="130" y="750" as="targetPoint" />
            <Array as="points">
              <mxPoint x="268.11" y="589" />
              <mxPoint x="130.11" y="589" />
            </Array>
            <mxPoint x="280" y="589" as="sourcePoint" />
          </mxGeometry>
        </mxCell>
        <mxCell id="l8ryaONsEic8xpae3Xou-5" value="3x Temp_L" style="edgeLabel;html=1;align=center;verticalAlign=middle;resizable=0;points=[];rotation=270;" parent="l8ryaONsEic8xpae3Xou-4" vertex="1" connectable="0">
          <mxGeometry x="-0.4151" relative="1" as="geometry">
            <mxPoint x="-64" y="81" as="offset" />
          </mxGeometry>
        </mxCell>
        <mxCell id="l8ryaONsEic8xpae3Xou-6" style="edgeStyle=orthogonalEdgeStyle;rounded=0;orthogonalLoop=1;jettySize=auto;html=1;endArrow=none;endFill=0;startArrow=classic;startFill=1;fillColor=#e3c800;strokeColor=#B09500;" parent="1" source="r6BQJi9y0me9pl01Vemt-1" edge="1">
          <mxGeometry relative="1" as="geometry">
            <mxPoint x="150" y="750" as="targetPoint" />
            <Array as="points">
              <mxPoint x="150" y="600" />
              <mxPoint x="150" y="750" />
            </Array>
            <mxPoint x="300.25" y="570" as="sourcePoint" />
          </mxGeometry>
        </mxCell>
        <mxCell id="l8ryaONsEic8xpae3Xou-7" value="3x i_abc_L" style="edgeLabel;html=1;align=center;verticalAlign=middle;resizable=0;points=[];rotation=270;" parent="l8ryaONsEic8xpae3Xou-6" vertex="1" connectable="0">
          <mxGeometry x="-0.4151" relative="1" as="geometry">
            <mxPoint x="-48" y="70" as="offset" />
          </mxGeometry>
        </mxCell>
        <mxCell id="l8ryaONsEic8xpae3Xou-8" style="edgeStyle=orthogonalEdgeStyle;rounded=0;orthogonalLoop=1;jettySize=auto;html=1;exitX=0;exitY=0.75;exitDx=0;exitDy=0;" parent="1" edge="1" target="A1l-bd0E0Y_Q0n0ILJGn-8">
          <mxGeometry relative="1" as="geometry">
            <mxPoint x="196.71" y="750" as="targetPoint" />
            <Array as="points">
              <mxPoint x="280" y="610" />
              <mxPoint x="170" y="610" />
            </Array>
            <mxPoint x="280.21" y="600.0000000000001" as="sourcePoint" />
          </mxGeometry>
        </mxCell>
        <mxCell id="l8ryaONsEic8xpae3Xou-9" value="Enable_L" style="edgeLabel;html=1;align=center;verticalAlign=middle;resizable=0;points=[];rotation=270;" parent="l8ryaONsEic8xpae3Xou-8" vertex="1" connectable="0">
          <mxGeometry x="-0.4151" relative="1" as="geometry">
            <mxPoint x="-32" y="60" as="offset" />
          </mxGeometry>
        </mxCell>
        <mxCell id="l8ryaONsEic8xpae3Xou-20" style="edgeStyle=orthogonalEdgeStyle;rounded=0;orthogonalLoop=1;jettySize=auto;html=1;exitX=0;exitY=0.5;exitDx=0;exitDy=0;entryX=1;entryY=0.5;entryDx=0;entryDy=0;strokeWidth=5;endArrow=none;endFill=0;fillColor=#fa6800;strokeColor=#C73500;" parent="1" source="l8ryaONsEic8xpae3Xou-10" target="l8ryaONsEic8xpae3Xou-21" edge="1">
          <mxGeometry relative="1" as="geometry">
            <mxPoint x="470" y="915.3333333333335" as="targetPoint" />
          </mxGeometry>
        </mxCell>
        <mxCell id="l8ryaONsEic8xpae3Xou-10" value="SiC" style="rounded=0;whiteSpace=wrap;html=1;direction=west;" parent="1" vertex="1">
          <mxGeometry x="210" y="900" width="77.25" height="30" as="geometry" />
        </mxCell>
        <mxCell id="l8ryaONsEic8xpae3Xou-21" value="MOTOR L" style="rounded=0;whiteSpace=wrap;html=1;direction=west;" parent="1" vertex="1">
          <mxGeometry x="575.25" y="875" width="77.25" height="80" as="geometry" />
        </mxCell>
        <mxCell id="l8ryaONsEic8xpae3Xou-23" value="Gate drivers" style="rounded=0;whiteSpace=wrap;html=1;direction=west;" parent="1" vertex="1">
          <mxGeometry x="190" y="860" width="77.25" height="30" as="geometry" />
        </mxCell>
        <mxCell id="l8ryaONsEic8xpae3Xou-24" value="Current sns" style="rounded=0;whiteSpace=wrap;html=1;direction=west;" parent="1" vertex="1">
          <mxGeometry x="110" y="860" width="77.25" height="30" as="geometry" />
        </mxCell>
        <mxCell id="l8ryaONsEic8xpae3Xou-31" style="edgeStyle=orthogonalEdgeStyle;rounded=0;orthogonalLoop=1;jettySize=auto;html=1;exitX=1;exitY=0.5;exitDx=0;exitDy=0;entryX=0;entryY=0.25;entryDx=0;entryDy=0;" parent="1" source="l8ryaONsEic8xpae3Xou-26" target="l8ryaONsEic8xpae3Xou-30" edge="1">
          <mxGeometry relative="1" as="geometry">
            <Array as="points">
              <mxPoint x="540" y="860" />
              <mxPoint x="540" y="569" />
            </Array>
          </mxGeometry>
        </mxCell>
        <mxCell id="l8ryaONsEic8xpae3Xou-26" value="Encoder / temp L" style="rounded=0;whiteSpace=wrap;html=1;direction=west;" parent="1" vertex="1">
          <mxGeometry x="575.25" y="845" width="77.25" height="30" as="geometry" />
        </mxCell>
        <mxCell id="l8ryaONsEic8xpae3Xou-27" style="edgeStyle=orthogonalEdgeStyle;rounded=0;orthogonalLoop=1;jettySize=auto;html=1;fillColor=#e3c800;strokeColor=#B09500;entryX=0;entryY=0.5;entryDx=0;entryDy=0;" parent="1" source="rTdynAf4Dbq_gKmKwfeH-7" target="r6BQJi9y0me9pl01Vemt-1" edge="1">
          <mxGeometry relative="1" as="geometry">
            <mxPoint x="240" y="550" as="targetPoint" />
            <Array as="points">
              <mxPoint x="90" y="570" />
            </Array>
          </mxGeometry>
        </mxCell>
        <mxCell id="Sd1_wsucwqB7kgYc21f2-7" value="VDC_sns" style="edgeLabel;html=1;align=center;verticalAlign=middle;resizable=0;points=[];rotation=270;" vertex="1" connectable="0" parent="l8ryaONsEic8xpae3Xou-27">
          <mxGeometry x="-0.3315" relative="1" as="geometry">
            <mxPoint x="-3" y="92" as="offset" />
          </mxGeometry>
        </mxCell>
        <mxCell id="l8ryaONsEic8xpae3Xou-135" style="edgeStyle=orthogonalEdgeStyle;rounded=0;orthogonalLoop=1;jettySize=auto;html=1;entryX=1;entryY=0.5;entryDx=0;entryDy=0;" parent="1" source="l8ryaONsEic8xpae3Xou-30" target="r6BQJi9y0me9pl01Vemt-1" edge="1">
          <mxGeometry relative="1" as="geometry">
            <Array as="points">
              <mxPoint x="410" y="570" />
              <mxPoint x="410" y="570" />
            </Array>
          </mxGeometry>
        </mxCell>
        <mxCell id="l8ryaONsEic8xpae3Xou-30" value="Encoder + motor temp interface" style="rounded=0;whiteSpace=wrap;html=1;direction=west;" parent="1" vertex="1">
          <mxGeometry x="420" y="512.5" width="70" height="75" as="geometry" />
        </mxCell>
        <mxCell id="l8ryaONsEic8xpae3Xou-78" value="Inverter Power R" style="rounded=0;whiteSpace=wrap;html=1;" parent="1" vertex="1">
          <mxGeometry x="80.25" y="81" width="207" height="200" as="geometry" />
        </mxCell>
        <mxCell id="Sd1_wsucwqB7kgYc21f2-1" style="edgeStyle=orthogonalEdgeStyle;rounded=0;orthogonalLoop=1;jettySize=auto;html=1;entryX=1;entryY=0.75;entryDx=0;entryDy=0;fillColor=#fa6800;strokeColor=#C73500;strokeWidth=5;endArrow=none;endFill=0;" edge="1" parent="1" source="l8ryaONsEic8xpae3Xou-81" target="rTdynAf4Dbq_gKmKwfeH-13">
          <mxGeometry relative="1" as="geometry">
            <Array as="points">
              <mxPoint x="60" y="246" />
              <mxPoint x="60" y="908" />
            </Array>
          </mxGeometry>
        </mxCell>
        <mxCell id="l8ryaONsEic8xpae3Xou-81" value="DC-link Bus" style="rounded=0;whiteSpace=wrap;html=1;direction=west;" parent="1" vertex="1">
          <mxGeometry x="80.25" y="231" width="77.25" height="30" as="geometry" />
        </mxCell>
        <mxCell id="l8ryaONsEic8xpae3Xou-89" value="SiC" style="rounded=0;whiteSpace=wrap;html=1;direction=west;" parent="1" vertex="1">
          <mxGeometry x="210" y="231" width="77.25" height="30" as="geometry" />
        </mxCell>
        <mxCell id="l8ryaONsEic8xpae3Xou-80" style="edgeStyle=orthogonalEdgeStyle;rounded=0;orthogonalLoop=1;jettySize=auto;html=1;exitX=0;exitY=0.5;exitDx=0;exitDy=0;strokeWidth=5;endArrow=none;endFill=0;fillColor=#fa6800;strokeColor=#C73500;" parent="1" source="l8ryaONsEic8xpae3Xou-81" target="l8ryaONsEic8xpae3Xou-89" edge="1">
          <mxGeometry relative="1" as="geometry" />
        </mxCell>
        <mxCell id="l8ryaONsEic8xpae3Xou-90" value="MOTOR R" style="rounded=0;whiteSpace=wrap;html=1;direction=west;" parent="1" vertex="1">
          <mxGeometry x="590" y="70" width="77.25" height="80" as="geometry" />
        </mxCell>
        <mxCell id="l8ryaONsEic8xpae3Xou-88" style="edgeStyle=orthogonalEdgeStyle;rounded=0;orthogonalLoop=1;jettySize=auto;html=1;entryX=1;entryY=0.5;entryDx=0;entryDy=0;strokeWidth=5;endArrow=none;endFill=0;fillColor=#fa6800;strokeColor=#C73500;" parent="1" target="l8ryaONsEic8xpae3Xou-90" edge="1">
          <mxGeometry relative="1" as="geometry">
            <mxPoint x="470" y="246.33333333333348" as="targetPoint" />
            <mxPoint x="287" y="110" as="sourcePoint" />
            <Array as="points">
              <mxPoint x="590" y="110" />
            </Array>
          </mxGeometry>
        </mxCell>
        <mxCell id="l8ryaONsEic8xpae3Xou-91" value="Gate drivers" style="rounded=0;whiteSpace=wrap;html=1;direction=west;" parent="1" vertex="1">
          <mxGeometry x="203" y="190" width="77.25" height="30" as="geometry" />
        </mxCell>
        <mxCell id="l8ryaONsEic8xpae3Xou-92" value="Current sns" style="rounded=0;whiteSpace=wrap;html=1;direction=west;" parent="1" vertex="1">
          <mxGeometry x="112.75" y="190" width="77.25" height="30" as="geometry" />
        </mxCell>
        <mxCell id="l8ryaONsEic8xpae3Xou-93" style="edgeStyle=orthogonalEdgeStyle;rounded=0;orthogonalLoop=1;jettySize=auto;html=1;exitX=1;exitY=0.5;exitDx=0;exitDy=0;entryX=0;entryY=0.75;entryDx=0;entryDy=0;" parent="1" target="l8ryaONsEic8xpae3Xou-30" edge="1">
          <mxGeometry relative="1" as="geometry">
            <mxPoint x="490" y="-100" as="targetPoint" />
            <mxPoint x="590" y="165" as="sourcePoint" />
          </mxGeometry>
        </mxCell>
        <mxCell id="l8ryaONsEic8xpae3Xou-119" style="edgeStyle=orthogonalEdgeStyle;rounded=0;orthogonalLoop=1;jettySize=auto;html=1;entryX=0.096;entryY=1.007;entryDx=0;entryDy=0;entryPerimeter=0;" parent="1" edge="1">
          <mxGeometry relative="1" as="geometry">
            <mxPoint x="100.37200000000007" y="281" as="targetPoint" />
            <Array as="points">
              <mxPoint x="100.25" y="558.6" />
            </Array>
            <mxPoint x="280.25" y="558.6" as="sourcePoint" />
          </mxGeometry>
        </mxCell>
        <mxCell id="l8ryaONsEic8xpae3Xou-120" value="PWM_R" style="edgeLabel;html=1;align=center;verticalAlign=middle;resizable=0;points=[];rotation=270;" parent="l8ryaONsEic8xpae3Xou-119" vertex="1" connectable="0">
          <mxGeometry x="-0.4151" relative="1" as="geometry">
            <mxPoint x="-44" y="-140" as="offset" />
          </mxGeometry>
        </mxCell>
        <mxCell id="l8ryaONsEic8xpae3Xou-123" style="edgeStyle=orthogonalEdgeStyle;rounded=0;orthogonalLoop=1;jettySize=auto;html=1;endArrow=none;endFill=0;startArrow=classic;startFill=1;fillColor=#e3c800;strokeColor=#B09500;exitX=-0.001;exitY=0.31;exitDx=0;exitDy=0;exitPerimeter=0;" parent="1" source="r6BQJi9y0me9pl01Vemt-1" edge="1">
          <mxGeometry relative="1" as="geometry">
            <mxPoint x="120" y="280" as="targetPoint" />
            <Array as="points">
              <mxPoint x="120" y="547" />
              <mxPoint x="120" y="281" />
            </Array>
            <mxPoint x="280.25" y="360" as="sourcePoint" />
          </mxGeometry>
        </mxCell>
        <mxCell id="l8ryaONsEic8xpae3Xou-124" value="3x&amp;nbsp;Temp_R" style="edgeLabel;html=1;align=center;verticalAlign=middle;resizable=0;points=[];rotation=270;" parent="l8ryaONsEic8xpae3Xou-123" vertex="1" connectable="0">
          <mxGeometry x="-0.4151" relative="1" as="geometry">
            <mxPoint x="-36" y="-127" as="offset" />
          </mxGeometry>
        </mxCell>
        <mxCell id="l8ryaONsEic8xpae3Xou-126" style="edgeStyle=orthogonalEdgeStyle;rounded=0;orthogonalLoop=1;jettySize=auto;html=1;endArrow=none;endFill=0;startArrow=classic;startFill=1;fillColor=#e3c800;strokeColor=#B09500;entryX=0.299;entryY=1;entryDx=0;entryDy=0;entryPerimeter=0;" parent="1" target="l8ryaONsEic8xpae3Xou-78" edge="1">
          <mxGeometry relative="1" as="geometry">
            <mxPoint x="140.25" y="290" as="targetPoint" />
            <Array as="points">
              <mxPoint x="140" y="539" />
              <mxPoint x="140" y="281" />
            </Array>
            <mxPoint x="280.25" y="539" as="sourcePoint" />
          </mxGeometry>
        </mxCell>
        <mxCell id="l8ryaONsEic8xpae3Xou-127" value="3x&amp;nbsp;i_abc_R" style="edgeLabel;html=1;align=center;verticalAlign=middle;resizable=0;points=[];rotation=270;" parent="l8ryaONsEic8xpae3Xou-126" vertex="1" connectable="0">
          <mxGeometry x="-0.4151" relative="1" as="geometry">
            <mxPoint x="-24" y="-119" as="offset" />
          </mxGeometry>
        </mxCell>
        <mxCell id="l8ryaONsEic8xpae3Xou-130" style="edgeStyle=orthogonalEdgeStyle;rounded=0;orthogonalLoop=1;jettySize=auto;html=1;entryX=0.386;entryY=1.014;entryDx=0;entryDy=0;entryPerimeter=0;exitX=-0.007;exitY=0.155;exitDx=0;exitDy=0;exitPerimeter=0;" parent="1" source="r6BQJi9y0me9pl01Vemt-1" target="l8ryaONsEic8xpae3Xou-78" edge="1">
          <mxGeometry relative="1" as="geometry">
            <mxPoint x="160" y="290" as="targetPoint" />
            <Array as="points">
              <mxPoint x="160" y="529" />
            </Array>
            <mxPoint x="270" y="528" as="sourcePoint" />
          </mxGeometry>
        </mxCell>
        <mxCell id="l8ryaONsEic8xpae3Xou-131" value="Enable_R" style="edgeLabel;html=1;align=center;verticalAlign=middle;resizable=0;points=[];rotation=270;" parent="l8ryaONsEic8xpae3Xou-130" vertex="1" connectable="0">
          <mxGeometry x="-0.4151" relative="1" as="geometry">
            <mxPoint x="-16" y="-109" as="offset" />
          </mxGeometry>
        </mxCell>
        <mxCell id="l8ryaONsEic8xpae3Xou-132" style="edgeStyle=orthogonalEdgeStyle;rounded=0;orthogonalLoop=1;jettySize=auto;html=1;startArrow=classic;startFill=1;endArrow=none;endFill=0;" parent="1" edge="1">
          <mxGeometry relative="1" as="geometry">
            <mxPoint x="177" y="280" as="targetPoint" />
            <Array as="points">
              <mxPoint x="177.25" y="520" />
            </Array>
            <mxPoint x="280" y="520" as="sourcePoint" />
          </mxGeometry>
        </mxCell>
        <mxCell id="l8ryaONsEic8xpae3Xou-133" value="Trip_R" style="edgeLabel;html=1;align=center;verticalAlign=middle;resizable=0;points=[];rotation=270;" parent="l8ryaONsEic8xpae3Xou-132" vertex="1" connectable="0">
          <mxGeometry x="-0.4151" relative="1" as="geometry">
            <mxPoint x="-1" y="-100" as="offset" />
          </mxGeometry>
        </mxCell>
        <mxCell id="l8ryaONsEic8xpae3Xou-134" value="Encoder / temp R" style="rounded=0;whiteSpace=wrap;html=1;direction=west;" parent="1" vertex="1">
          <mxGeometry x="590" y="151" width="77.25" height="30" as="geometry" />
        </mxCell>
        <mxCell id="rTdynAf4Dbq_gKmKwfeH-5" value="Discharge" style="rounded=0;whiteSpace=wrap;html=1;" parent="1" vertex="1">
          <mxGeometry x="187.25" y="81" width="100" height="30" as="geometry" />
        </mxCell>
        <mxCell id="rTdynAf4Dbq_gKmKwfeH-7" value="V_DC measurement" style="rounded=0;whiteSpace=wrap;html=1;" parent="1" vertex="1">
          <mxGeometry x="87.25" y="81" width="100" height="30" as="geometry" />
        </mxCell>
        <mxCell id="l8ryaONsEic8xpae3Xou-14" value="TSAL" style="rounded=0;whiteSpace=wrap;html=1;" parent="1" vertex="1">
          <mxGeometry x="87.25" y="111" width="100" height="30" as="geometry" />
        </mxCell>
        <mxCell id="l8ryaONsEic8xpae3Xou-28" style="edgeStyle=orthogonalEdgeStyle;rounded=0;orthogonalLoop=1;jettySize=auto;html=1;" parent="1" edge="1">
          <mxGeometry relative="1" as="geometry">
            <mxPoint x="190" y="280" as="sourcePoint" />
            <mxPoint x="332" y="360" as="targetPoint" />
            <Array as="points">
              <mxPoint x="190" y="282" />
              <mxPoint x="190" y="460" />
              <mxPoint x="332" y="460" />
            </Array>
          </mxGeometry>
        </mxCell>
        <mxCell id="Sd1_wsucwqB7kgYc21f2-2" value="TSAL_ON" style="edgeLabel;html=1;align=center;verticalAlign=middle;resizable=0;points=[];" vertex="1" connectable="0" parent="l8ryaONsEic8xpae3Xou-28">
          <mxGeometry x="0.4083" y="-2" relative="1" as="geometry">
            <mxPoint as="offset" />
          </mxGeometry>
        </mxCell>
        <mxCell id="Sd1_wsucwqB7kgYc21f2-4" value="Discharge" style="rounded=0;whiteSpace=wrap;html=1;" vertex="1" parent="1">
          <mxGeometry x="183.75" y="750" width="100" height="30" as="geometry" />
        </mxCell>
        <mxCell id="Sd1_wsucwqB7kgYc21f2-5" value="V_DC measurement" style="rounded=0;whiteSpace=wrap;html=1;" vertex="1" parent="1">
          <mxGeometry x="83.75" y="750" width="100" height="30" as="geometry" />
        </mxCell>
        <mxCell id="Sd1_wsucwqB7kgYc21f2-6" value="TSAL" style="rounded=0;whiteSpace=wrap;html=1;" vertex="1" parent="1">
          <mxGeometry x="83.75" y="780" width="100" height="30" as="geometry" />
        </mxCell>
        <mxCell id="Sd1_wsucwqB7kgYc21f2-9" style="edgeStyle=orthogonalEdgeStyle;rounded=0;orthogonalLoop=1;jettySize=auto;html=1;fillColor=#e3c800;strokeColor=#B09500;entryX=0;entryY=0.5;entryDx=0;entryDy=0;exitX=0.133;exitY=-0.049;exitDx=0;exitDy=0;exitPerimeter=0;" edge="1" parent="1" source="Sd1_wsucwqB7kgYc21f2-5">
          <mxGeometry relative="1" as="geometry">
            <mxPoint x="280.25" y="570" as="targetPoint" />
            <Array as="points">
              <mxPoint x="90" y="749" />
              <mxPoint x="90" y="570" />
            </Array>
            <mxPoint x="100.25" y="709" as="sourcePoint" />
          </mxGeometry>
        </mxCell>
        <mxCell id="Sd1_wsucwqB7kgYc21f2-10" value="VDC_sns" style="edgeLabel;html=1;align=center;verticalAlign=middle;resizable=0;points=[];rotation=270;" vertex="1" connectable="0" parent="Sd1_wsucwqB7kgYc21f2-9">
          <mxGeometry x="-0.3315" relative="1" as="geometry">
            <mxPoint x="-3" y="53" as="offset" />
          </mxGeometry>
        </mxCell>
        <mxCell id="Sd1_wsucwqB7kgYc21f2-11" value="Car connector" style="rounded=0;whiteSpace=wrap;html=1;direction=west;" vertex="1" parent="1">
          <mxGeometry x="280" y="310" width="140" height="46" as="geometry" />
        </mxCell>
      </root>
    </mxGraphModel>
  </diagram>
</mxfile>
